<?xml version="1.0" standalone="no"?><!-- Generator: Gravit.io --><svg xmlns="http://www.w3.org/2000/svg" xmlns:xlink="http://www.w3.org/1999/xlink" style="isolation:isolate" viewBox="0 0 36 18" width="36" height="18"><defs><clipPath id="_clipPath_eVN2umWFeZoTPR4zyhPhQNPkOT991spU"><rect width="36" height="18"/></clipPath></defs><g clip-path="url(#_clipPath_eVN2umWFeZoTPR4zyhPhQNPkOT991spU)"><path d=" M 5 9 C 17.75 25.313 15.625 -10.125 30.5 10" fill="none" vector-effect="non-scaling-stroke" stroke-width="2" stroke="rgb(0,0,0)" stroke-linejoin="miter" stroke-linecap="square" stroke-miterlimit="3"/><path d=" M 2 9 C 2 7.344 3.344 6 5 6 C 6.656 6 8 7.344 8 9 C 8 10.656 6.656 12 5 12 C 3.344 12 2 10.656 2 9 Z " fill="rgb(0,0,0)"/><path d=" M 28 9 C 28 7.344 29.344 6 31 6 C 32.656 6 34 7.344 34 9 C 34 10.656 32.656 12 31 12 C 29.344 12 28 10.656 28 9 Z " fill="rgb(0,0,0)"/></g></svg>